<svg width="40" height="40" viewBox="0 0 40 40" fill="none" xmlns="http://www.w3.org/2000/svg">
<path d="M32.3997 21.6666C32.033 21.6666 31.6497 21.5499 31.283 21.4666C30.5405 21.303 29.8108 21.0857 29.0997 20.8166C28.3265 20.5353 27.4766 20.5499 26.7135 20.8576C25.9505 21.1653 25.3282 21.7443 24.9663 22.4833L24.5997 23.2333C22.9764 22.3302 21.4847 21.2087 20.1663 19.8999C18.8576 18.5816 17.7361 17.0899 16.833 15.4666L17.533 14.9999C18.272 14.6381 18.851 14.0158 19.1587 13.2528C19.4664 12.4897 19.481 11.6398 19.1997 10.8666C18.9351 10.154 18.7179 9.42461 18.5497 8.68328C18.4663 8.31661 18.3997 7.93328 18.3497 7.54994C18.1473 6.37598 17.5324 5.31285 16.6157 4.55201C15.699 3.79117 14.5408 3.38262 13.3497 3.39994H8.34968C7.6314 3.3932 6.9201 3.5413 6.2642 3.83416C5.6083 4.12702 5.0232 4.55777 4.54873 5.09708C4.07426 5.63639 3.72157 6.2716 3.51466 6.95947C3.30775 7.64733 3.25148 8.37171 3.34968 9.08328C4.23758 16.0656 7.42639 22.5531 12.4124 27.521C17.3985 32.4889 23.8975 35.6541 30.883 36.5166H31.5163C32.7454 36.5184 33.932 36.0675 34.8497 35.2499C35.377 34.7784 35.7982 34.2002 36.0855 33.5538C36.3728 32.9074 36.5196 32.2073 36.5163 31.4999V26.4999C36.4959 25.3423 36.0744 24.2275 35.3236 23.3461C34.5728 22.4646 33.5394 21.871 32.3997 21.6666V21.6666ZM33.233 31.6666C33.2327 31.9033 33.182 32.1371 33.0843 32.3526C32.9866 32.5682 32.8441 32.7604 32.6663 32.9166C32.4801 33.0774 32.2624 33.1975 32.027 33.2693C31.7917 33.341 31.5439 33.3628 31.2997 33.3333C25.0578 32.533 19.2601 29.6774 14.8209 25.2171C10.3817 20.7568 7.5537 14.9455 6.78301 8.69994C6.75649 8.45581 6.77973 8.20883 6.85135 7.97393C6.92297 7.73903 7.04146 7.52109 7.19968 7.33328C7.35586 7.1555 7.54811 7.01301 7.76364 6.91531C7.97917 6.8176 8.21304 6.76691 8.44968 6.76661H13.4497C13.8373 6.75799 14.2157 6.88474 14.5199 7.12506C14.8241 7.36538 15.035 7.70423 15.1163 8.08328C15.183 8.53883 15.2663 8.98883 15.3663 9.43328C15.5589 10.3118 15.8151 11.1752 16.133 12.0166L13.7997 13.0999C13.6002 13.1915 13.4207 13.3215 13.2716 13.4826C13.1225 13.6437 13.0067 13.8326 12.9308 14.0386C12.8549 14.2446 12.8205 14.4635 12.8294 14.6828C12.8384 14.9021 12.8906 15.1175 12.983 15.3166C15.3817 20.4545 19.5118 24.5846 24.6497 26.9833C25.0554 27.15 25.5106 27.15 25.9163 26.9833C26.1242 26.9089 26.3152 26.794 26.4783 26.6453C26.6414 26.4965 26.7733 26.3168 26.8663 26.1166L27.8997 23.7833C28.7613 24.0914 29.6407 24.3474 30.533 24.5499C30.9775 24.6499 31.4275 24.7333 31.883 24.7999C32.2621 24.8813 32.6009 25.0922 32.8412 25.3964C33.0815 25.7006 33.2083 26.079 33.1997 26.4666L33.233 31.6666Z" fill="white"/>
</svg>
