<svg width="40" height="40" viewBox="0 0 40 40" fill="none" xmlns="http://www.w3.org/2000/svg">
<path d="M31.3834 15.7333C31.2305 15.5071 31.0244 15.3219 30.7832 15.1941C30.542 15.0662 30.273 14.9995 30 15H25V11.6666H28.6667C29.1087 11.6666 29.5327 11.491 29.8452 11.1785C30.1578 10.8659 30.3334 10.442 30.3334 9.99996V3.33329C30.3334 2.89127 30.1578 2.46734 29.8452 2.15478C29.5327 1.84222 29.1087 1.66663 28.6667 1.66663H23.3334C20.7696 1.66663 18.3109 2.68508 16.498 4.49793C14.6852 6.31078 13.6667 8.76953 13.6667 11.3333V15H10C9.55801 15 9.13409 15.1756 8.82153 15.4881C8.50897 15.8007 8.33337 16.2246 8.33337 16.6666V23.3333C8.33337 23.7753 8.50897 24.1992 8.82153 24.5118C9.13409 24.8244 9.55801 25 10 25H13.6667V36.6666C13.6667 37.1087 13.8423 37.5326 14.1549 37.8451C14.4674 38.1577 14.8913 38.3333 15.3334 38.3333H23.3334C23.7754 38.3333 24.1993 38.1577 24.5119 37.8451C24.8244 37.5326 25 37.1087 25 36.6666V25H27.3334C27.6672 25.0003 27.9934 24.9004 28.2697 24.7132C28.5461 24.5259 28.7599 24.2601 28.8834 23.95L31.55 17.2833C31.6507 17.0309 31.6882 16.7578 31.6591 16.4876C31.6301 16.2175 31.5354 15.9585 31.3834 15.7333ZM26.2 21.6666H23.3334C22.8913 21.6666 22.4674 21.8422 22.1549 22.1548C21.8423 22.4673 21.6667 22.8913 21.6667 23.3333V35H17V23.3333C17 22.8913 16.8244 22.4673 16.5119 22.1548C16.1993 21.8422 15.7754 21.6666 15.3334 21.6666H11.6667V18.3333H15.3334C15.7754 18.3333 16.1993 18.1577 16.5119 17.8451C16.8244 17.5326 17 17.1087 17 16.6666V11.3333C17.0044 9.65494 17.6731 8.04659 18.8599 6.85981C20.0467 5.67303 21.655 5.00436 23.3334 4.99996H27V8.33329H25.6667C25.1024 8.25108 24.5272 8.28558 23.9768 8.43466C23.4264 8.58373 22.9124 8.84421 22.4667 9.19996C22.1962 9.48312 21.9859 9.81812 21.8484 10.1848C21.7109 10.5514 21.6491 10.9421 21.6667 11.3333V16.6666C21.6667 17.1087 21.8423 17.5326 22.1549 17.8451C22.4674 18.1577 22.8913 18.3333 23.3334 18.3333H27.5334L26.2 21.6666Z" fill="white"/>
</svg>
