<svg width="40" height="40" viewBox="0 0 40 40" fill="none" xmlns="http://www.w3.org/2000/svg">
<path d="M20 11.6667C18.3519 11.6667 16.7407 12.1554 15.3703 13.0711C13.9999 13.9868 12.9318 15.2883 12.301 16.811C11.6703 18.3337 11.5053 20.0093 11.8268 21.6258C12.1484 23.2423 12.942 24.7272 14.1075 25.8926C15.2729 27.058 16.7578 27.8517 18.3743 28.1733C19.9908 28.4948 21.6664 28.3298 23.1891 27.699C24.7118 27.0683 26.0133 26.0002 26.929 24.6298C27.8446 23.2594 28.3334 21.6482 28.3334 20C28.3334 17.7899 27.4554 15.6703 25.8926 14.1075C24.3298 12.5447 22.2102 11.6667 20 11.6667ZM20 25C19.0111 25 18.0444 24.7068 17.2222 24.1574C16.3999 23.608 15.7591 22.8271 15.3806 21.9135C15.0022 20.9998 14.9032 19.9945 15.0961 19.0246C15.289 18.0547 15.7652 17.1638 16.4645 16.4645C17.1638 15.7652 18.0547 15.289 19.0246 15.0961C19.9945 14.9032 20.9998 15.0022 21.9135 15.3806C22.8271 15.7591 23.608 16.3999 24.1574 17.2222C24.7068 18.0444 25 19.0111 25 20C25 21.3261 24.4733 22.5979 23.5356 23.5356C22.5979 24.4733 21.3261 25 20 25ZM28.3334 10C28.0037 10 27.6815 10.0978 27.4074 10.2809C27.1333 10.4641 26.9197 10.7244 26.7936 11.0289C26.6674 11.3334 26.6344 11.6686 26.6987 11.9919C26.763 12.3152 26.9218 12.6121 27.1549 12.8452C27.388 13.0783 27.6849 13.237 28.0082 13.3013C28.3315 13.3657 28.6666 13.3327 28.9712 13.2065C29.2757 13.0804 29.536 12.8667 29.7192 12.5927C29.9023 12.3186 30 11.9963 30 11.6667C30 11.2247 29.8244 10.8008 29.5119 10.4882C29.1993 10.1756 28.7754 10 28.3334 10ZM36.5667 13.7334C36.5391 12.3091 36.2685 10.9 35.7667 9.56671C35.3013 8.35348 34.586 7.25169 33.6672 6.33287C32.7484 5.41405 31.6466 4.69873 30.4334 4.23337C29.1001 3.73154 27.691 3.46099 26.2667 3.43337C24.65 3.33337 24.1167 3.33337 20 3.33337C15.8834 3.33337 15.35 3.33337 13.7334 3.43337C12.3091 3.46099 10.9 3.73154 9.56671 4.23337C8.35348 4.69873 7.25169 5.41405 6.33287 6.33287C5.41405 7.25169 4.69873 8.35348 4.23337 9.56671C3.73154 10.9 3.46099 12.3091 3.43337 13.7334C3.33337 15.3667 3.33337 15.9 3.33337 20C3.33337 24.1 3.33337 24.6334 3.43337 26.2667C3.46099 27.691 3.73154 29.1001 4.23337 30.4334C4.69873 31.6466 5.41405 32.7484 6.33287 33.6672C7.25169 34.586 8.35348 35.3013 9.56671 35.7667C10.9 36.2685 12.3091 36.5391 13.7334 36.5667C15.4 36.5667 15.8834 36.6667 20 36.6667C24.1167 36.6667 24.65 36.6667 26.2667 36.5667C27.691 36.5391 29.1001 36.2685 30.4334 35.7667C31.6466 35.3013 32.7484 34.586 33.6672 33.6672C34.586 32.7484 35.3013 31.6466 35.7667 30.4334C36.2685 29.1001 36.5391 27.691 36.5667 26.2667C36.5667 24.6 36.6667 24.1 36.6667 20C36.6667 15.9 36.6667 15.3667 36.5667 13.7334ZM33.2334 26.1167C33.2042 27.1744 33.0073 28.2207 32.65 29.2167C32.3547 30.0039 31.8879 30.7156 31.2834 31.3C30.7024 31.9048 29.9894 32.3668 29.2 32.65C28.2017 33.0219 27.1484 33.2247 26.0834 33.25C24.5167 33.25 24.0334 33.3334 19.9834 33.3334C15.9334 33.3334 15.4667 33.3334 13.9 33.3334C12.8367 33.3059 11.7846 33.109 10.7834 32.75C9.99614 32.4547 9.28449 31.9879 8.70004 31.3834C8.0953 30.8024 7.63324 30.0894 7.35004 29.3C6.97972 28.3071 6.77695 27.2595 6.75004 26.2C6.75004 24.5334 6.75004 24.1167 6.75004 20.0834C6.75004 16.05 6.75004 15.5667 6.75004 13.9667C6.77877 12.9021 6.98144 11.8493 7.35004 10.85C7.63764 10.0678 8.09926 9.36107 8.70004 8.78337C9.281 8.17863 9.99405 7.71657 10.7834 7.43337C11.7817 7.06153 12.835 6.85875 13.9 6.83337C15.4667 6.66671 15.95 6.66671 20 6.66671C24.05 6.66671 24.5334 6.66671 26.1 6.66671C27.1703 6.69392 28.2288 6.89662 29.2334 7.26671C30.0157 7.5543 30.7223 8.01593 31.3 8.61671C31.9048 9.19767 32.3668 9.91072 32.65 10.7C33.058 11.7143 33.2892 12.791 33.3334 13.8834C33.3334 15.55 33.4167 15.9667 33.4167 20C33.4167 24.0334 33.3334 24.5167 33.3334 26.1167H33.2334Z" fill="white"/>
</svg>
