<svg width="40" height="40" viewBox="0 0 40 40" fill="none" xmlns="http://www.w3.org/2000/svg">
<path d="M29.9996 7.46684C27.3474 4.81468 23.7503 3.32471 19.9996 3.32471C16.2488 3.32471 12.6517 4.81468 9.99956 7.46684C7.34739 10.119 5.85742 13.7161 5.85742 17.4668C5.85742 21.2176 7.34739 24.8147 9.99956 27.4668L18.7829 36.2668C18.9378 36.4231 19.1222 36.547 19.3253 36.6317C19.5284 36.7163 19.7462 36.7598 19.9662 36.7598C20.1862 36.7598 20.4041 36.7163 20.6072 36.6317C20.8103 36.547 20.9946 36.4231 21.1496 36.2668L29.9996 27.3835C32.6406 24.7424 34.1244 21.1603 34.1244 17.4252C34.1244 13.6901 32.6406 10.108 29.9996 7.46684V7.46684ZM27.6162 25.0002L19.9996 32.6502L12.3829 25.0002C10.8781 23.494 9.85368 21.5756 9.43905 19.4873C9.02441 17.3991 9.2382 15.2348 10.0534 13.268C10.8686 11.3012 12.2486 9.62026 14.0189 8.43764C15.7893 7.25502 17.8705 6.62381 19.9996 6.62381C22.1286 6.62381 24.2098 7.25502 25.9802 8.43764C27.7505 9.62026 29.1305 11.3012 29.9457 13.268C30.7609 15.2348 30.9747 17.3991 30.5601 19.4873C30.1454 21.5756 29.121 23.494 27.6162 25.0002V25.0002ZM14.9996 12.3502C13.6541 13.6998 12.8985 15.5278 12.8985 17.4335C12.8985 19.3392 13.6541 21.1672 14.9996 22.5168C15.9992 23.5182 17.2722 24.202 18.659 24.4825C20.0457 24.7631 21.4845 24.6278 22.7947 24.0938C24.1049 23.5597 25.2282 22.6506 26.0237 21.4806C26.8192 20.3105 27.2514 18.9316 27.2662 17.5168C27.2737 16.5722 27.0918 15.6356 26.7311 14.7625C26.3704 13.8894 25.8383 13.0974 25.1662 12.4335C24.5057 11.7578 23.718 11.2194 22.8486 10.8493C21.9792 10.4792 21.0451 10.2846 20.1002 10.2769C19.1553 10.2691 18.2182 10.4483 17.3428 10.8042C16.4675 11.16 15.6711 11.6854 14.9996 12.3502V12.3502ZM22.8162 20.1502C22.1846 20.7914 21.3499 21.1933 20.4548 21.2873C19.5596 21.3812 18.6597 21.1612 17.9087 20.6651C17.1578 20.1689 16.6026 19.4272 16.3379 18.567C16.0733 17.7067 16.1156 16.7812 16.4578 15.9488C16.8 15.1163 17.4207 14.4285 18.2139 14.0031C19.007 13.5776 19.9233 13.4409 20.8061 13.6162C21.6889 13.7916 22.4834 14.2681 23.0537 14.9644C23.6241 15.6607 23.9348 16.5335 23.9329 17.4335C23.9086 18.4623 23.477 19.4394 22.7329 20.1502H22.8162Z" fill="white"/>
</svg>
