<svg width="163" height="140" viewBox="0 0 163 140" fill="none" xmlns="http://www.w3.org/2000/svg">
<path d="M7.296 36.32L6.576 39.968H14.376L13.776 42.992H5.952L5.184 46.88H14.352L13.704 50H0.696L4.056 33.2H16.752L16.104 36.32H7.296ZM35.5656 33.2L32.2056 50H29.0136L22.7496 39.488L20.6376 50H16.7976L20.1576 33.2H23.3736L29.6376 43.736L31.7256 33.2H35.5656ZM39.5404 33.2H46.5724C48.2844 33.2 49.7564 33.488 50.9884 34.064C52.2364 34.624 53.1884 35.432 53.8444 36.488C54.5164 37.544 54.8524 38.784 54.8524 40.208C54.8524 42.16 54.4124 43.88 53.5324 45.368C52.6524 46.84 51.4204 47.984 49.8364 48.8C48.2684 49.6 46.4524 50 44.3884 50H36.1804L39.5404 33.2ZM44.5084 46.808C45.8204 46.808 46.9564 46.536 47.9164 45.992C48.8924 45.432 49.6364 44.672 50.1484 43.712C50.6604 42.736 50.9164 41.64 50.9164 40.424C50.9164 39.16 50.5084 38.176 49.6924 37.472C48.8764 36.752 47.6924 36.392 46.1404 36.392H42.8044L40.7164 46.808H44.5084ZM63.9285 50.288C61.8165 50.288 60.1605 49.768 58.9605 48.728C57.7605 47.672 57.1605 46.232 57.1605 44.408C57.1605 43.88 57.2245 43.28 57.3525 42.608L59.2245 33.2H63.1365L61.2645 42.536C61.1685 43.064 61.1205 43.536 61.1205 43.952C61.1205 44.96 61.3925 45.72 61.9365 46.232C62.4965 46.728 63.3045 46.976 64.3605 46.976C65.5445 46.976 66.4885 46.624 67.1925 45.92C67.8965 45.216 68.4085 44.088 68.7285 42.536L70.6005 33.2H74.4165L72.5205 42.776C71.4965 47.784 68.6325 50.288 63.9285 50.288ZM91.6986 38.408C91.6986 39.976 91.2746 41.32 90.4266 42.44C89.5786 43.56 88.4026 44.352 86.8986 44.816L89.8266 50H85.7226L83.0826 45.296H79.7706L78.8346 50H74.9226L78.2826 33.2H85.1226C87.2026 33.2 88.8186 33.656 89.9706 34.568C91.1226 35.48 91.6986 36.76 91.6986 38.408ZM83.6826 42.2C84.9786 42.2 85.9786 41.904 86.6826 41.312C87.4026 40.72 87.7626 39.872 87.7626 38.768C87.7626 37.968 87.4906 37.368 86.9466 36.968C86.4026 36.568 85.6266 36.368 84.6186 36.368H81.5466L80.3706 42.2H83.6826ZM101.283 50.288C99.603 50.288 98.147 49.984 96.915 49.376C95.683 48.768 94.739 47.912 94.083 46.808C93.427 45.704 93.099 44.432 93.099 42.992C93.099 41.088 93.531 39.376 94.395 37.856C95.275 36.32 96.499 35.112 98.067 34.232C99.651 33.352 101.459 32.912 103.491 32.912C105.171 32.912 106.627 33.216 107.859 33.824C109.091 34.432 110.035 35.288 110.691 36.392C111.347 37.496 111.675 38.768 111.675 40.208C111.675 42.112 111.235 43.832 110.355 45.368C109.491 46.888 108.267 48.088 106.683 48.968C105.115 49.848 103.315 50.288 101.283 50.288ZM101.619 46.976C102.851 46.976 103.931 46.68 104.859 46.088C105.787 45.496 106.499 44.704 106.995 43.712C107.491 42.72 107.739 41.624 107.739 40.424C107.739 39.144 107.339 38.128 106.539 37.376C105.739 36.608 104.611 36.224 103.155 36.224C101.923 36.224 100.843 36.52 99.915 37.112C98.987 37.704 98.275 38.496 97.779 39.488C97.283 40.48 97.035 41.576 97.035 42.776C97.035 44.056 97.435 45.08 98.235 45.848C99.035 46.6 100.163 46.976 101.619 46.976ZM135.722 42.272C135.13 43.76 134.378 45.072 133.466 46.208L134.978 47.936L132.482 50.288L130.946 48.56C129.25 49.712 127.378 50.288 125.33 50.288C124.162 50.288 123.122 50.12 122.21 49.784C121.314 49.432 120.61 48.944 120.098 48.32C119.602 47.68 119.354 46.928 119.354 46.064C119.354 44.912 119.746 43.904 120.53 43.04C121.33 42.16 122.498 41.352 124.034 40.616C123.33 39.672 122.978 38.712 122.978 37.736C122.978 36.776 123.226 35.936 123.722 35.216C124.234 34.496 124.914 33.944 125.762 33.56C126.626 33.176 127.578 32.984 128.618 32.984C129.962 32.984 131.05 33.288 131.882 33.896C132.73 34.504 133.154 35.344 133.154 36.416C133.154 37.44 132.802 38.328 132.098 39.08C131.41 39.816 130.37 40.512 128.978 41.168L131.474 43.976C132.034 43.192 132.498 42.312 132.866 41.336L135.722 42.272ZM128.474 35.528C127.85 35.528 127.346 35.696 126.962 36.032C126.594 36.368 126.41 36.816 126.41 37.376C126.41 37.648 126.474 37.928 126.602 38.216C126.746 38.504 126.978 38.848 127.298 39.248C128.322 38.784 129.026 38.368 129.41 38C129.794 37.616 129.986 37.192 129.986 36.728C129.986 36.376 129.85 36.088 129.578 35.864C129.306 35.64 128.938 35.528 128.474 35.528ZM125.81 47.36C126.93 47.36 128.01 47.032 129.05 46.376L125.714 42.584C124.818 43.016 124.154 43.456 123.722 43.904C123.306 44.336 123.098 44.84 123.098 45.416C123.098 45.992 123.33 46.464 123.794 46.832C124.274 47.184 124.946 47.36 125.81 47.36ZM9.528 79.288C7.848 79.288 6.376 78.984 5.112 78.376C3.864 77.768 2.904 76.912 2.232 75.808C1.56 74.704 1.224 73.432 1.224 71.992C1.224 70.088 1.656 68.376 2.52 66.856C3.4 65.32 4.632 64.112 6.216 63.232C7.8 62.352 9.616 61.912 11.664 61.912C13.168 61.912 14.496 62.168 15.648 62.68C16.8 63.192 17.672 63.928 18.264 64.888L15.456 67.192C14.56 65.88 13.208 65.224 11.4 65.224C10.168 65.224 9.08 65.512 8.136 66.088C7.192 66.664 6.456 67.448 5.928 68.44C5.416 69.432 5.16 70.536 5.16 71.752C5.16 73.048 5.568 74.08 6.384 74.848C7.216 75.6 8.376 75.976 9.864 75.976C11.64 75.976 13.128 75.328 14.328 74.032L16.632 76.384C14.968 78.32 12.6 79.288 9.528 79.288ZM26.658 79.288C24.978 79.288 23.522 78.984 22.29 78.376C21.058 77.768 20.114 76.912 19.458 75.808C18.802 74.704 18.474 73.432 18.474 71.992C18.474 70.088 18.906 68.376 19.77 66.856C20.65 65.32 21.874 64.112 23.442 63.232C25.026 62.352 26.834 61.912 28.866 61.912C30.546 61.912 32.002 62.216 33.234 62.824C34.466 63.432 35.41 64.288 36.066 65.392C36.722 66.496 37.05 67.768 37.05 69.208C37.05 71.112 36.61 72.832 35.73 74.368C34.866 75.888 33.642 77.088 32.058 77.968C30.49 78.848 28.69 79.288 26.658 79.288ZM26.994 75.976C28.226 75.976 29.306 75.68 30.234 75.088C31.162 74.496 31.874 73.704 32.37 72.712C32.866 71.72 33.114 70.624 33.114 69.424C33.114 68.144 32.714 67.128 31.914 66.376C31.114 65.608 29.986 65.224 28.53 65.224C27.298 65.224 26.218 65.52 25.29 66.112C24.362 66.704 23.65 67.496 23.154 68.488C22.658 69.48 22.41 70.576 22.41 71.776C22.41 73.056 22.81 74.08 23.61 74.848C24.41 75.6 25.538 75.976 26.994 75.976ZM46.116 79.288C44.004 79.288 42.348 78.768 41.148 77.728C39.948 76.672 39.348 75.232 39.348 73.408C39.348 72.88 39.412 72.28 39.54 71.608L41.412 62.2H45.324L43.452 71.536C43.356 72.064 43.308 72.536 43.308 72.952C43.308 73.96 43.58 74.72 44.124 75.232C44.684 75.728 45.492 75.976 46.548 75.976C47.732 75.976 48.676 75.624 49.38 74.92C50.084 74.216 50.596 73.088 50.916 71.536L52.788 62.2H56.604L54.708 71.776C53.684 76.784 50.82 79.288 46.116 79.288ZM75.8781 62.2L72.5181 79H69.3261L63.0621 68.488L60.9501 79H57.1101L60.4701 62.2H63.6861L69.9501 72.736L72.0381 62.2H75.8781ZM82.6849 65.368H77.3089L77.9569 62.2H92.5969L91.9489 65.368H86.5969L83.8609 79H79.9729L82.6849 65.368ZM108.105 67.408C108.105 68.976 107.681 70.32 106.833 71.44C105.985 72.56 104.809 73.352 103.305 73.816L106.233 79H102.129L99.4888 74.296H96.1768L95.2408 79H91.3288L94.6888 62.2H101.529C103.609 62.2 105.225 62.656 106.377 63.568C107.529 64.48 108.105 65.76 108.105 67.408ZM100.089 71.2C101.385 71.2 102.385 70.904 103.089 70.312C103.809 69.72 104.169 68.872 104.169 67.768C104.169 66.968 103.897 66.368 103.353 65.968C102.809 65.568 102.033 65.368 101.025 65.368H97.9528L96.7768 71.2H100.089ZM117.959 73.168L116.807 79H112.919L114.095 73L109.775 62.2H113.663L116.663 69.688L122.687 62.2H126.695L117.959 73.168ZM9.528 108.288C7.848 108.288 6.376 107.984 5.112 107.376C3.864 106.768 2.904 105.912 2.232 104.808C1.56 103.704 1.224 102.432 1.224 100.992C1.224 99.088 1.656 97.376 2.52 95.856C3.4 94.32 4.632 93.112 6.216 92.232C7.8 91.352 9.616 90.912 11.664 90.912C13.168 90.912 14.496 91.168 15.648 91.68C16.8 92.192 17.672 92.928 18.264 93.888L15.456 96.192C14.56 94.88 13.208 94.224 11.4 94.224C10.168 94.224 9.08 94.512 8.136 95.088C7.192 95.664 6.456 96.448 5.928 97.44C5.416 98.432 5.16 99.536 5.16 100.752C5.16 102.048 5.568 103.08 6.384 103.848C7.216 104.6 8.376 104.976 9.864 104.976C11.64 104.976 13.128 104.328 14.328 103.032L16.632 105.384C14.968 107.32 12.6 108.288 9.528 108.288ZM35.0736 96.408C35.0736 97.976 34.6496 99.32 33.8016 100.44C32.9536 101.56 31.7776 102.352 30.2736 102.816L33.2016 108H29.0976L26.4576 103.296H23.1456L22.2096 108H18.2976L21.6576 91.2H28.4976C30.5776 91.2 32.1936 91.656 33.3456 92.568C34.4976 93.48 35.0736 94.76 35.0736 96.408ZM27.0576 100.2C28.3536 100.2 29.3536 99.904 30.0576 99.312C30.7776 98.72 31.1376 97.872 31.1376 96.768C31.1376 95.968 30.8656 95.368 30.3216 94.968C29.7776 94.568 29.0016 94.368 27.9936 94.368H24.9216L23.7456 100.2H27.0576ZM44.658 108.288C42.978 108.288 41.522 107.984 40.29 107.376C39.058 106.768 38.114 105.912 37.458 104.808C36.802 103.704 36.474 102.432 36.474 100.992C36.474 99.088 36.906 97.376 37.77 95.856C38.65 94.32 39.874 93.112 41.442 92.232C43.026 91.352 44.834 90.912 46.866 90.912C48.546 90.912 50.002 91.216 51.234 91.824C52.466 92.432 53.41 93.288 54.066 94.392C54.722 95.496 55.05 96.768 55.05 98.208C55.05 100.112 54.61 101.832 53.73 103.368C52.866 104.888 51.642 106.088 50.058 106.968C48.49 107.848 46.69 108.288 44.658 108.288ZM44.994 104.976C46.226 104.976 47.306 104.68 48.234 104.088C49.162 103.496 49.874 102.704 50.37 101.712C50.866 100.72 51.114 99.624 51.114 98.424C51.114 97.144 50.714 96.128 49.914 95.376C49.114 94.608 47.986 94.224 46.53 94.224C45.298 94.224 44.218 94.52 43.29 95.112C42.362 95.704 41.65 96.496 41.154 97.488C40.658 98.48 40.41 99.576 40.41 100.776C40.41 102.056 40.81 103.08 41.61 103.848C42.41 104.6 43.538 104.976 44.994 104.976ZM62.052 108.288C60.724 108.288 59.452 108.112 58.236 107.76C57.02 107.408 56.044 106.96 55.308 106.416L56.892 103.416C57.66 103.976 58.524 104.408 59.484 104.712C60.444 105.016 61.428 105.168 62.436 105.168C63.508 105.168 64.356 104.992 64.98 104.64C65.604 104.288 65.916 103.808 65.916 103.2C65.916 102.704 65.668 102.328 65.172 102.072C64.676 101.8 63.884 101.512 62.796 101.208C61.708 100.888 60.82 100.584 60.132 100.296C59.444 99.992 58.844 99.544 58.332 98.952C57.836 98.36 57.588 97.576 57.588 96.6C57.588 95.464 57.9 94.464 58.524 93.6C59.164 92.736 60.06 92.072 61.212 91.608C62.38 91.144 63.732 90.912 65.268 90.912C66.404 90.912 67.476 91.04 68.484 91.296C69.492 91.536 70.356 91.888 71.076 92.352L69.612 95.328C68.988 94.896 68.284 94.576 67.5 94.368C66.716 94.144 65.9 94.032 65.052 94.032C63.948 94.032 63.076 94.224 62.436 94.608C61.796 94.992 61.476 95.488 61.476 96.096C61.476 96.464 61.612 96.776 61.884 97.032C62.156 97.272 62.5 97.472 62.916 97.632C63.332 97.776 63.916 97.952 64.668 98.16C65.74 98.448 66.62 98.744 67.308 99.048C67.996 99.336 68.58 99.768 69.06 100.344C69.556 100.904 69.804 101.648 69.804 102.576C69.804 103.728 69.484 104.736 68.844 105.6C68.204 106.448 67.3 107.112 66.132 107.592C64.964 108.056 63.604 108.288 62.052 108.288ZM77.3567 108.288C76.0287 108.288 74.7567 108.112 73.5407 107.76C72.3247 107.408 71.3487 106.96 70.6127 106.416L72.1967 103.416C72.9647 103.976 73.8287 104.408 74.7887 104.712C75.7487 105.016 76.7327 105.168 77.7407 105.168C78.8127 105.168 79.6607 104.992 80.2847 104.64C80.9087 104.288 81.2207 103.808 81.2207 103.2C81.2207 102.704 80.9727 102.328 80.4767 102.072C79.9807 101.8 79.1887 101.512 78.1007 101.208C77.0127 100.888 76.1247 100.584 75.4367 100.296C74.7487 99.992 74.1487 99.544 73.6367 98.952C73.1407 98.36 72.8927 97.576 72.8927 96.6C72.8927 95.464 73.2047 94.464 73.8287 93.6C74.4687 92.736 75.3647 92.072 76.5167 91.608C77.6847 91.144 79.0367 90.912 80.5727 90.912C81.7087 90.912 82.7807 91.04 83.7887 91.296C84.7967 91.536 85.6607 91.888 86.3807 92.352L84.9167 95.328C84.2927 94.896 83.5887 94.576 82.8047 94.368C82.0207 94.144 81.2047 94.032 80.3567 94.032C79.2527 94.032 78.3807 94.224 77.7407 94.608C77.1007 94.992 76.7807 95.488 76.7807 96.096C76.7807 96.464 76.9167 96.776 77.1887 97.032C77.4607 97.272 77.8047 97.472 78.2207 97.632C78.6367 97.776 79.2207 97.952 79.9727 98.16C81.0447 98.448 81.9247 98.744 82.6127 99.048C83.3007 99.336 83.8847 99.768 84.3647 100.344C84.8607 100.904 85.1087 101.648 85.1087 102.576C85.1087 103.728 84.7887 104.736 84.1487 105.6C83.5087 106.448 82.6047 107.112 81.4367 107.592C80.2687 108.056 78.9087 108.288 77.3567 108.288ZM107.066 93.72L102.362 98.112C103.53 98.384 104.434 98.888 105.074 99.624C105.714 100.36 106.034 101.272 106.034 102.36C106.034 103.496 105.698 104.512 105.026 105.408C104.37 106.304 103.45 107.008 102.266 107.52C101.082 108.032 99.7383 108.288 98.2343 108.288C97.0023 108.288 95.8503 108.12 94.7783 107.784C93.7063 107.448 92.8102 106.968 92.0902 106.344L93.9623 103.488C94.5223 103.968 95.1943 104.344 95.9783 104.616C96.7783 104.888 97.6183 105.024 98.4983 105.024C99.6503 105.024 100.538 104.816 101.162 104.4C101.786 103.968 102.098 103.368 102.098 102.6C102.098 101.992 101.866 101.544 101.402 101.256C100.954 100.952 100.266 100.8 99.3383 100.8H97.5623L98.0663 98.232L102.242 94.32H95.1383L95.7863 91.2H107.546L107.066 93.72ZM115.317 90.912C116.661 90.912 117.837 91.176 118.845 91.704C119.869 92.232 120.661 93.016 121.221 94.056C121.797 95.08 122.085 96.328 122.085 97.8C122.085 99.496 121.725 101.152 121.005 102.768C120.285 104.368 119.165 105.688 117.645 106.728C116.125 107.768 114.245 108.288 112.005 108.288C111.077 108.288 110.189 108.192 109.341 108C108.509 107.792 107.829 107.512 107.301 107.16L109.077 104.304C109.877 104.848 110.925 105.12 112.221 105.12C113.789 105.12 115.037 104.68 115.965 103.8C116.909 102.92 117.533 101.784 117.837 100.392C116.877 101.288 115.621 101.736 114.069 101.736C113.061 101.736 112.141 101.544 111.309 101.16C110.477 100.776 109.813 100.224 109.317 99.504C108.821 98.768 108.573 97.896 108.573 96.888C108.573 95.688 108.861 94.64 109.437 93.744C110.029 92.832 110.837 92.136 111.861 91.656C112.885 91.16 114.037 90.912 115.317 90.912ZM115.077 98.832C115.989 98.832 116.725 98.584 117.285 98.088C117.845 97.592 118.125 96.96 118.125 96.192C118.125 95.52 117.877 94.96 117.381 94.512C116.885 94.048 116.213 93.816 115.365 93.816C114.501 93.816 113.797 94.064 113.253 94.56C112.709 95.056 112.437 95.72 112.437 96.552C112.437 97.256 112.677 97.816 113.157 98.232C113.637 98.632 114.277 98.832 115.077 98.832Z" fill="#FBD784"/>
<rect x="35.5" y="12.5" width="127" height="127" stroke="#FBD784"/>
<rect x="20.5" y="0.5" width="127" height="127" stroke="#FBD784"/>
</svg>
