<svg width="40" height="40" viewBox="0 0 40 40" fill="none" xmlns="http://www.w3.org/2000/svg">
<path d="M31.6663 6.66675H8.33301C7.00693 6.66675 5.73516 7.19353 4.79747 8.13121C3.85979 9.0689 3.33301 10.3407 3.33301 11.6667V28.3334C3.33301 29.6595 3.85979 30.9313 4.79747 31.8689C5.73516 32.8066 7.00693 33.3334 8.33301 33.3334H31.6663C32.9924 33.3334 34.2642 32.8066 35.2019 31.8689C36.1396 30.9313 36.6663 29.6595 36.6663 28.3334V11.6667C36.6663 10.3407 36.1396 9.0689 35.2019 8.13121C34.2642 7.19353 32.9924 6.66675 31.6663 6.66675V6.66675ZM8.33301 10.0001H31.6663C32.1084 10.0001 32.5323 10.1757 32.8449 10.4882C33.1574 10.8008 33.333 11.2247 33.333 11.6667L19.9997 19.8001L6.66634 11.6667C6.66634 11.2247 6.84194 10.8008 7.1545 10.4882C7.46706 10.1757 7.89098 10.0001 8.33301 10.0001V10.0001ZM33.333 28.3334C33.333 28.7754 33.1574 29.1994 32.8449 29.5119C32.5323 29.8245 32.1084 30.0001 31.6663 30.0001H8.33301C7.89098 30.0001 7.46706 29.8245 7.1545 29.5119C6.84194 29.1994 6.66634 28.7754 6.66634 28.3334V15.4667L19.133 23.0834C19.3864 23.2297 19.6738 23.3067 19.9663 23.3067C20.2589 23.3067 20.5463 23.2297 20.7997 23.0834L33.333 15.4667V28.3334Z" fill="white"/>
</svg>
