<svg width="98" height="98" viewBox="0 0 98 98" fill="none" xmlns="http://www.w3.org/2000/svg">
<path d="M48.9768 8.16692C40.9007 8.16692 33.006 10.5617 26.291 15.0486C19.576 19.5354 14.3423 25.9127 11.2517 33.374C8.16113 40.8353 7.35249 49.0455 8.92805 56.9664C10.5036 64.8873 14.3926 72.1631 20.1033 77.8738C25.8139 83.5844 33.0897 87.4734 41.0106 89.049C48.9315 90.6246 57.1417 89.8159 64.603 86.7253C72.0643 83.6348 78.4416 78.401 82.9285 71.686C87.4153 64.971 89.8101 57.0763 89.8101 49.0003C89.8106 43.6378 88.7547 38.3278 86.7028 33.3735C84.6509 28.4192 81.6431 23.9175 77.8513 20.1257C74.0595 16.3339 69.5579 13.3262 64.6036 11.2743C59.6492 9.22235 54.3392 8.16647 48.9768 8.16692V8.16692ZM61.9598 70.0395C61.8069 70.4206 61.5744 70.7646 61.2777 71.0485C60.9811 71.3324 60.6271 71.5496 60.2397 71.6855C59.8522 71.8214 59.4402 71.8729 59.0312 71.8366C58.6222 71.8002 58.2257 71.6769 57.8683 71.4748L46.7834 62.8615L39.6689 69.4251C39.5038 69.5471 39.3107 69.6255 39.1074 69.6533C38.904 69.6811 38.6969 69.6573 38.5052 69.5841L39.869 57.3812L39.9126 57.4158L39.9405 57.1749C39.9405 57.1749 59.8876 39.0143 60.7002 38.2405C61.5229 37.4688 61.2514 37.3013 61.2514 37.3013C61.2983 36.36 59.7752 37.3013 59.7752 37.3013L33.3458 54.3045L22.3392 50.556C22.3392 50.556 20.6487 49.9496 20.4895 48.6164C20.322 47.2934 22.3943 46.5748 22.3943 46.5748L66.1554 29.1899C66.1554 29.1899 69.7528 27.5871 69.7528 30.2414L61.9598 70.0395Z" fill="white"/>
</svg>
