<svg width="98" height="98" viewBox="0 0 98 98" fill="none" xmlns="http://www.w3.org/2000/svg">
<path d="M61.5479 8.16698H36.4948C13.611 8.16698 8.16669 13.6113 8.16669 36.4525V61.5055C8.16669 84.3891 13.5687 89.8336 36.4522 89.8336H61.5052C84.389 89.8336 89.8334 84.4316 89.8334 61.5479V36.4951C89.8334 13.6113 84.4314 8.16698 61.5479 8.16698ZM74.0954 66.4394H68.1406C65.8864 66.4394 65.2058 64.6104 61.165 60.5697C57.6345 57.167 56.1459 56.7415 55.2526 56.7415C54.0192 56.7415 53.6787 57.0818 53.6787 58.7832V64.1426C53.6787 65.5889 53.211 66.4394 49.4255 66.4394C45.752 66.1926 42.1898 65.0767 39.0321 63.1836C35.8744 61.2904 33.2116 58.6743 31.263 55.5505C26.6371 49.7926 23.4184 43.0348 21.863 35.8145C21.863 34.9212 22.2031 34.113 23.9046 34.113H29.8594C31.3906 34.113 31.9437 34.7936 32.5391 36.3675C35.4313 44.8743 40.3656 52.2754 42.3646 52.2754C43.1302 52.2754 43.4704 51.9352 43.4704 50.0211V41.2588C43.2152 37.2607 41.0886 36.9203 41.0886 35.4743C41.1166 35.0928 41.2922 34.7372 41.5781 34.483C41.864 34.2289 42.2376 34.0961 42.6198 34.113H51.9775C53.2536 34.113 53.6787 34.751 53.6787 36.2823V48.1071C53.6787 49.3831 54.2318 49.8083 54.6146 49.8083C55.3802 49.8083 55.9756 49.3831 57.3793 47.9795C60.3956 44.3011 62.8601 40.2031 64.6953 35.8145C64.8826 35.2864 65.2377 34.8342 65.7063 34.5269C66.1748 34.2197 66.7311 34.0743 67.2901 34.113H73.2448C75.0313 34.113 75.4141 35.0062 75.0313 36.2823C72.8645 41.1346 70.1837 45.7405 67.0348 50.0211C66.3968 50.9993 66.1416 51.5098 67.0348 52.6582C67.6302 53.5514 69.7145 55.2953 71.1182 56.9542C73.1598 58.9907 74.8551 61.347 76.1371 63.93C76.6475 65.5889 75.7969 66.4394 74.0954 66.4394V66.4394Z" fill="white"/>
</svg>
