<svg width="40" height="40" viewBox="0 0 40 40" fill="none" xmlns="http://www.w3.org/2000/svg">
<path d="M26.2394 22.5488C25.7525 22.0224 25.2058 21.5547 24.6104 21.1553C27.0132 19.2974 28.6972 16.6635 29.375 13.7028C29.425 13.4888 29.4322 13.2671 29.3962 13.0503C29.3602 12.8335 29.2817 12.626 29.1652 12.4397C29.0487 12.2534 28.8966 12.0919 28.7174 11.9647C28.5383 11.8374 28.3358 11.7468 28.1215 11.6981C27.9073 11.6494 27.6855 11.6435 27.469 11.6808C27.2524 11.7182 27.0454 11.7979 26.8598 11.9156C26.6742 12.0332 26.5137 12.1864 26.3875 12.3663C26.2614 12.5462 26.172 12.7493 26.1246 12.9638C25.8089 14.3488 25.195 15.6482 24.3255 16.7715C23.4561 17.8947 22.352 18.8149 21.0905 19.4676V13.3366C21.0802 13.214 21.0557 13.0929 21.0176 12.9759C21.0066 12.8795 20.9874 12.7843 20.9601 12.6912C20.889 12.5396 20.7953 12.3997 20.6821 12.2763C20.6523 12.2409 20.6373 12.1943 20.6047 12.1615C20.4826 12.0488 20.3444 11.9549 20.1946 11.8831C20.152 11.8604 20.1204 11.822 20.0757 11.8031C19.9481 11.7605 19.8158 11.7333 19.6817 11.722C19.5989 11.6978 19.5143 11.6804 19.4287 11.67L18.3382 11.6666H18.3333C17.9434 11.6648 17.5653 11.8003 17.2654 12.0495C16.9655 12.2986 16.7629 12.6455 16.6933 13.0291C16.6237 13.4127 16.6914 13.8086 16.8846 14.1473C17.0778 14.486 17.3841 14.7457 17.7498 14.881V23.0322C15.1087 20.2905 13.3598 16.8133 12.7335 13.0583C12.697 12.8425 12.6183 12.6361 12.5019 12.4507C12.3856 12.2653 12.2339 12.1047 12.0555 11.978C11.8771 11.8513 11.6754 11.7609 11.4621 11.7121C11.2488 11.6633 11.0279 11.657 10.8121 11.6936C10.5964 11.7301 10.3899 11.8088 10.2045 11.9251C10.0192 12.0415 9.85855 12.1932 9.73182 12.3716C9.6051 12.55 9.51475 12.7517 9.46595 12.965C9.41715 13.1783 9.41084 13.3992 9.44739 13.615C10.4214 19.4192 13.658 24.6001 18.4472 28.0209C18.5155 28.0618 18.5867 28.0977 18.6602 28.1283C18.718 28.1622 18.7778 28.1924 18.8394 28.2186C19.0254 28.293 19.2235 28.333 19.4238 28.3366C19.669 28.3336 19.9104 28.2756 20.1302 28.1669C20.1467 28.159 20.1658 28.1627 20.1823 28.1543C20.3296 28.0776 20.4645 27.9791 20.5824 27.8622C20.6061 27.8391 20.622 27.8107 20.6444 27.7863C20.7519 27.6681 20.8417 27.535 20.9109 27.391C20.9341 27.3432 20.9553 27.2975 20.9739 27.2473C21.0471 27.0634 21.0866 26.8678 21.0905 26.67L21.0913 23.1266C22.1239 23.4298 23.0544 24.0089 23.7825 24.8014L26.5291 27.7962C26.6768 27.958 26.8551 28.0891 27.0536 28.182C27.2521 28.2749 27.4669 28.3277 27.6858 28.3374C27.9048 28.3471 28.1235 28.3135 28.3294 28.2386C28.5353 28.1636 28.7245 28.0488 28.886 27.9007C29.0475 27.7526 29.1782 27.5741 29.2706 27.3754C29.363 27.1767 29.4153 26.9617 29.4245 26.7427C29.4337 26.5238 29.3996 26.3052 29.3243 26.0994C29.2489 25.8936 29.1336 25.7048 28.9851 25.5436L26.2394 22.5488ZM25.1212 1.66663H14.8958C4.63374 1.66663 1.66663 4.63049 1.66663 14.8779V25.1041C1.66663 35.3662 4.62968 38.3333 14.8787 38.3333H25.1041C35.3662 38.3333 38.3333 35.3694 38.3333 25.122V14.8958C38.3333 4.63374 35.3702 1.66663 25.1212 1.66663ZM35 25.122C35 33.5221 33.5205 35 25.1041 35H14.8787C6.47701 35 4.99996 33.5205 4.99996 25.1041V14.8779C4.99996 6.47783 6.47946 4.99996 14.8958 4.99996H25.1212C33.5229 4.99996 35 6.47946 35 14.8958V25.122Z" fill="white"/>
</svg>
