<svg width="98" height="98" viewBox="0 0 98 98" fill="none" xmlns="http://www.w3.org/2000/svg">
<path d="M89.8334 26.7458C89.7875 24.9842 89.6512 23.226 89.425 21.4783C89.1201 19.9476 88.612 18.4645 87.9142 17.0683C87.1844 15.5539 86.2042 14.1734 85.015 12.985C83.8149 11.8098 82.4368 10.8314 80.9317 10.0858C79.5337 9.40165 78.0506 8.90728 76.5217 8.61584C74.7906 8.35654 73.0449 8.20653 71.295 8.16667H26.7459C24.9842 8.21255 23.226 8.34884 21.4784 8.575C19.9476 8.8799 18.4645 9.38801 17.0684 10.0858C15.5539 10.8157 14.1734 11.7958 12.985 12.985C11.8099 14.1851 10.8314 15.5632 10.0859 17.0683C9.40167 18.4663 8.9073 19.9494 8.61585 21.4783C8.35656 23.2094 8.20654 24.9551 8.16669 26.705C8.16669 27.4808 8.16669 28.5833 8.16669 28.91V69.09C8.16669 69.5392 8.16669 70.5192 8.16669 71.2542C8.21257 73.0158 8.34886 74.774 8.57502 76.5217C8.87992 78.0524 9.38803 79.5355 10.0859 80.9317C10.8157 82.4462 11.7958 83.8266 12.985 85.015C14.1852 86.1902 15.5632 87.1686 17.0684 87.9142C18.4663 88.5984 19.9495 89.0927 21.4784 89.3842C23.2094 89.6435 24.9551 89.7935 26.705 89.8333H71.2542C73.0159 89.7875 74.774 89.6512 76.5217 89.425C78.0524 89.1201 79.5356 88.612 80.9317 87.9142C82.4462 87.1843 83.8267 86.2042 85.015 85.015C86.1902 83.8149 87.1686 82.4368 87.9142 80.9317C88.5984 79.5337 89.0927 78.0506 89.3842 76.5217C89.6435 74.7906 89.7935 73.0449 89.8334 71.295C89.8334 70.5192 89.8334 69.5392 89.8334 69.09V28.91C89.8334 28.5833 89.8334 27.4808 89.8334 26.7458ZM49.9392 77.5833C45.0354 77.5592 40.2173 76.2949 35.9334 73.9083L20.4167 77.9917L24.5 62.8017C21.8667 58.3772 20.4575 53.332 20.4167 48.1833C20.4329 42.397 22.1611 36.7448 25.3835 31.9386C28.6059 27.1325 33.1784 23.3874 38.5252 21.175C43.8719 18.9626 49.7538 18.3818 55.43 19.5058C61.1062 20.6298 66.3228 23.4084 70.423 27.4915C74.5231 31.5746 77.3233 36.7796 78.4709 42.4511C79.6185 48.1226 79.0622 54.0068 76.872 59.3627C74.6818 64.7186 70.9558 69.3067 66.1631 72.549C61.3704 75.7914 55.7255 77.543 49.9392 77.5833V77.5833ZM49.9392 23.9692C45.6101 24.0187 41.3714 25.2145 37.6547 27.4349C33.938 29.6552 30.8761 32.8207 28.7806 36.6092C26.6851 40.3977 25.6309 44.6738 25.7254 49.0022C25.8198 53.3305 27.0596 57.5566 29.3184 61.25L29.89 62.1892L27.44 71.1317L36.75 68.6L37.6484 69.1308C41.3624 71.3185 45.588 72.4876 49.8984 72.52V72.52C56.3962 72.52 62.6278 69.9388 67.2225 65.3441C71.8171 60.7495 74.3984 54.5178 74.3984 48.02C74.3984 41.5222 71.8171 35.2905 67.2225 30.6959C62.6278 26.1012 56.3962 23.52 49.8984 23.52L49.9392 23.9692ZM64.2309 58.7592C63.696 59.6512 62.9799 60.4211 62.1288 61.019C61.2777 61.6169 60.3106 62.0294 59.29 62.23C57.7651 62.5087 56.1951 62.4106 54.7167 61.9442C53.3257 61.5093 51.9621 60.9911 50.6334 60.3925C45.5853 57.8595 41.2802 54.0609 38.1384 49.3675C36.431 47.193 35.3951 44.5678 35.1575 41.8133C35.1332 40.6691 35.3497 39.5326 35.7928 38.4774C36.236 37.4223 36.896 36.472 37.73 35.6883C37.9757 35.4098 38.2771 35.1859 38.6147 35.0312C38.9523 34.8764 39.3187 34.7943 39.69 34.79H40.8334C41.2825 34.79 41.895 34.79 42.4667 36.0558C43.0384 37.3217 44.5492 41.1192 44.7534 41.4867C44.8537 41.6826 44.906 41.8995 44.906 42.1196C44.906 42.3397 44.8537 42.5566 44.7534 42.7525C44.5728 43.1962 44.3249 43.6094 44.0184 43.9775C43.6509 44.4267 43.2425 44.9575 42.9159 45.2842C42.5892 45.6108 42.1809 46.0192 42.5892 46.7542C43.7002 48.6292 45.0754 50.3345 46.6725 51.8175C48.4117 53.3543 50.4002 54.5833 52.5525 55.4517C53.2875 55.8192 53.7367 55.7783 54.145 55.4517C54.5534 55.125 55.9825 53.3283 56.4725 52.5933C56.9625 51.8583 57.4525 51.9808 58.1059 52.2258C58.7592 52.4708 62.3934 54.2267 63.1284 54.5942C63.8634 54.9617 64.3125 55.125 64.5167 55.4517C64.6938 56.5204 64.5954 57.6166 64.2309 58.6367V58.7592Z" fill="white"/>
</svg>
